<svg xmlns="http://www.w3.org/2000/svg" width="28.271" height="22.422" viewBox="0 0 28.271 22.422">
    <g data-name="guest room">
        <g data-name="Layer 48">
            <path data-name="Path 165486" d="M15.854 45.774h-.848A1.774 1.774 0 0 1 13.236 44v-5.231A1.774 1.774 0 0 1 15.006 37h.848a1.8 1.8 0 0 1 .424.054 1.76 1.76 0 0 1 1.345 1.716V44a1.774 1.774 0 0 1-1.769 1.769zm-.848-7.8a.8.8 0 0 0-.795.795V44a.8.8 0 0 0 .795.795h.848a.8.8 0 0 0 .794-.795v-5.231a.8.8 0 0 0-.6-.77.882.882 0 0 0-.19 0zm14.5 7.8h-.848A1.774 1.774 0 0 1 26.885 44v-5.231a1.76 1.76 0 0 1 1.345-1.716 1.8 1.8 0 0 1 .424-.053h.846a1.774 1.774 0 0 1 1.769 1.769V44a1.774 1.774 0 0 1-1.769 1.774zm-.848-7.8a.883.883 0 0 0-.19 0 .8.8 0 0 0-.6.795V44a.8.8 0 0 0 .795.795h.837a.8.8 0 0 0 .8-.795v-5.231a.8.8 0 0 0-.795-.795zm-16.397 5.363H3v-5.85h9.261zm-8.286-.975h7.312v-3.9H3.975z" transform="translate(-3 -23.352)" style="fill:#5bc5f2"/>
            <path data-name="Path 165487" d="M11.286 46.975h.975v3.412h-.975zm-8.286 0h.975v3.412H3zm23.4 3.412h-8.289a1.462 1.462 0 0 1-1.462-1.462V46h11.21v2.925a1.462 1.462 0 0 1-1.459 1.462zm-8.774-3.412v1.95a.487.487 0 0 0 .487.487H26.4a.487.487 0 0 0 .487-.487v-1.95z" transform="translate(-3 -27.965)" style="fill:#5bc5f2"/>
            <path data-name="Path 165488" d="M42.211 43.9H31v-1.463A2.437 2.437 0 0 1 33.437 40h6.337a2.437 2.437 0 0 1 2.437 2.437zm-10.236-.975h9.261v-.487a1.462 1.462 0 0 0-1.462-1.462h-6.337a1.462 1.462 0 0 0-1.462 1.462z" transform="translate(-17.352 -24.889)" style="fill:#5bc5f2"/>
            <path data-name="Path 165489" d="M29.741 34.236h-.975a1.462 1.462 0 0 0-1.466-1.462h-6.333a1.462 1.462 0 0 0-1.467 1.462h-.975v-2.13a.8.8 0 0 0-.6-.77l-.37-.088v-3.836A3.412 3.412 0 0 1 20.967 24H27.3a3.412 3.412 0 0 1 3.412 3.412v3.836l-.37.088a.8.8 0 0 0-.6.77zM20.967 31.8H27.3a2.437 2.437 0 0 1 1.462.487v-.18a1.755 1.755 0 0 1 .975-1.579v-3.116a2.437 2.437 0 0 0-2.437-2.437h-6.333a2.437 2.437 0 0 0-2.437 2.437v3.115a1.755 1.755 0 0 1 .975 1.579v.18a2.437 2.437 0 0 1 1.462-.487zM8.293 33.261h2.437v.975H8.293zM11.1 31.8H7.928L6.67 27.412h5.684zm-2.437-.975h1.706l.692-2.437H7.967z" transform="translate(-4.881 -16.688)" style="fill:#5bc5f2"/>
            <path data-name="Path 165490" d="M8.656 28.387a1.911 1.911 0 0 1-.37-.039A3.948 3.948 0 0 1 5 24.487V24h.487a3.87 3.87 0 0 1 2.486.887l.18.141v.229a2.969 2.969 0 0 0 .5 1.667 2.973 2.973 0 0 0 .522-1.662v-.229l.18-.141A3.87 3.87 0 0 1 11.824 24h.487v.487a3.929 3.929 0 0 1-3.344 3.9 1.574 1.574 0 0 1-.312 0zm1.487-2.9a3.9 3.9 0 0 1-.487 1.662A2.925 2.925 0 0 0 11.317 25a2.861 2.861 0 0 0-1.175.492zM6 25a3 3 0 0 0 1.662 2.15 3.943 3.943 0 0 1-.487-1.662A2.861 2.861 0 0 0 6 25z" transform="translate(-4.025 -16.688)" style="fill:#5bc5f2"/>
            <path data-name="Path 165491" d="m10.927 26.293-.346-.341c-.083-.088-.166-.175-.244-.268a3.943 3.943 0 0 1 .244-5.3l.346-.341.346.341a3.9 3.9 0 0 1 1.15 2.783v.024a3.9 3.9 0 0 1-.9 2.476c-.088.107-.171.195-.253.283zm0-4.806a2.973 2.973 0 0 0 0 3.363 2.973 2.973 0 0 0 .522-1.662 2.925 2.925 0 0 0-.522-1.7zM16.532 20h.975v11.7h-.975z" transform="translate(-6.296 -14.638)" style="fill:#5bc5f2"/>
            <path data-name="Path 165492" d="M24.8 15.337h-7.9L17.48 9h6.736zm-6.824-.975h5.752l-.395-4.387h-4.966z" transform="translate(-10.125 -9)" style="fill:#5bc5f2"/>
        </g>
    </g>
</svg>
